<?xml version="1.0" encoding="UTF-8"?>
<svg xmlns="http://www.w3.org/2000/svg" xmlns:xlink="http://www.w3.org/1999/xlink" width="1200pt" height="1200pt" viewBox="0 0 1200 1200" version="1.1">
<defs>
<clipPath id="clip1">
  <path d="M 0 137 L 1198.046875 137 L 1198.046875 1027 L 0 1027 Z M 0 137 "/>
</clipPath>
</defs>
<g id="surface1">
<g clip-path="url(#clip1)" clip-rule="nonzero">
<path style=" stroke:none;fill-rule:nonzero;fill:rgb(0%,0%,0%);fill-opacity:1;" d="M 936.175781 137.894531 C 803.746094 137.894531 726.75 225.992188 726.75 338.101562 C 726.75 426.796875 791.398438 503.851562 883.832031 503.851562 C 952.949219 503.851562 983.175781 462.589844 976.769531 449.890625 C 970.320312 437.238281 948.203125 451.546875 898.347656 451.546875 C 826.738281 451.546875 805.265625 395.007812 805.265625 346.476562 C 805.265625 295.59375 831.898438 242.460938 936.269531 242.460938 C 1042.019531 242.460938 1093.257812 357.195312 1093.257812 451.546875 C 1093.257812 578.929688 1036.121094 635.285156 954.238281 653.457031 C 946.175781 646.96875 936.269531 642.507812 925.394531 641.722656 C 923.921875 641.585938 922.492188 641.539062 921.109375 641.539062 C 904.613281 641.539062 890.742188 649.179688 881.988281 660.449219 C 873.785156 660.355469 865.816406 659.207031 857.890625 657.871094 C 851.070312 649.867188 842.316406 643.105469 831.074219 639.886719 C 825.726562 638.320312 820.199219 637.539062 814.667969 637.539062 C 810.707031 637.539062 807.113281 638.414062 803.425781 639.195312 C 797.480469 636.207031 791.488281 633.261719 785.546875 629.808594 C 785.5 626.128906 785.40625 622.449219 784.765625 618.769531 C 781.769531 602.117188 772.644531 586.75 759.097656 575.433594 C 745.550781 564.210938 728.824219 557.996094 712.003906 557.996094 C 704.265625 557.996094 696.890625 559.65625 689.933594 562.140625 C 686.246094 559.378906 682.515625 556.617188 678.78125 553.859375 C 690.164062 517.5625 670.488281 476.710938 630.214844 457.390625 C 616.898438 450.996094 602.382812 447.636719 588.191406 447.636719 C 565.246094 447.636719 544.648438 456.421875 530.640625 471.46875 C 525.847656 469.855469 521.101562 468.246094 516.171875 466.820312 C 505.25 429.464844 467.695312 401.722656 422.769531 401.722656 C 379.363281 401.722656 342.914062 427.714844 330.613281 463.140625 C 324.761719 464.703125 318.726562 465.898438 313.105469 467.785156 C 298.636719 459.917969 282 455.363281 264.351562 455.363281 C 245.460938 455.363281 226.382812 460.195312 209.148438 469.351562 C 160.675781 495.203125 138.464844 549.214844 154.777344 594.941406 C 154.640625 595.125 154.5 595.261719 154.410156 595.445312 C 116.027344 598.804688 80.40625 625.761719 64.140625 665.046875 C 53.589844 690.535156 51.976562 718.367188 59.671875 743.390625 C 63.542969 755.996094 69.945312 767.222656 77.871094 776.929688 C 76.398438 782.632812 75.199219 788.199219 73.863281 793.8125 C 30.964844 806.324219 0 850.535156 0 905.09375 C 0 947.097656 18.429688 982.886719 46.355469 1002.992188 C 45.894531 1017.894531 46.03125 1026.589844 46.03125 1026.589844 L 307.847656 1026.589844 C 307.847656 1026.589844 406.273438 1019.046875 406.273438 914.984375 C 406.273438 890.648438 398.210938 868.523438 385.261719 850.671875 C 417.839844 842.117188 445.945312 817 458.898438 782.402344 C 467.925781 758.207031 467.925781 733.226562 461.246094 711.007812 C 464.886719 711.375 468.480469 712.019531 472.257812 712.019531 C 499.03125 712.019531 523.269531 702.035156 540.730469 685.980469 C 548.65625 689.980469 556.488281 694.261719 564.230469 698.859375 C 570.265625 712.433594 580.496094 724.945312 594.828125 734.285156 C 608.605469 743.253906 624.085938 747.992188 639.523438 748.039062 C 655.558594 758.390625 672.46875 768.417969 690.671875 777.621094 C 696.476562 792.066406 708.640625 804.441406 725.875 809.40625 C 731.265625 810.972656 736.796875 811.753906 742.277344 811.753906 C 750.847656 811.753906 758.589844 809.363281 765.59375 805.957031 C 776.097656 808.625 787.113281 810.789062 798.585938 812.582031 C 806.878906 823.300781 819.550781 831.121094 834.988281 832.316406 C 836.417969 832.410156 837.84375 832.5 839.273438 832.5 C 854.203125 832.5 866.921875 826.199219 875.816406 816.769531 C 890.558594 816.355469 904.796875 815.386719 918.296875 813.777344 C 923.691406 815.710938 929.402344 817 935.578125 817 C 940.554688 817 945.53125 816.308594 950.371094 814.929688 C 957.878906 812.8125 964.332031 808.808594 970.046875 803.980469 C 1146.941406 757.976562 1198.085938 599.402344 1198.085938 471.007812 C 1197.996094 246.097656 1072.246094 137.894531 936.175781 137.894531 Z M 422.402344 448.96875 C 450.371094 448.96875 473.042969 467.09375 473.042969 489.410156 C 473.042969 511.71875 450.371094 529.84375 422.402344 529.84375 C 394.429688 529.84375 371.761719 511.71875 371.761719 489.410156 C 371.761719 467.09375 394.429688 448.96875 422.402344 448.96875 Z M 95.613281 973.640625 C 66.675781 972.628906 44.28125 941.023438 45.617188 903.070312 C 46.953125 865.117188 71.515625 835.171875 100.449219 836.179688 C 129.386719 837.195312 151.78125 868.796875 150.492188 906.75 C 149.109375 944.65625 124.597656 974.605469 95.613281 973.640625 Z M 204.40625 721.496094 C 192.5625 754.664062 160.8125 773.707031 133.535156 764.003906 C 106.257812 754.296875 93.722656 719.515625 105.566406 686.300781 C 117.40625 653.132812 149.15625 634.089844 176.433594 643.796875 C 203.714844 653.5 216.246094 688.28125 204.40625 721.496094 Z M 207.535156 597.609375 C 189.152344 574.421875 195.601562 538.722656 221.960938 517.835938 C 248.363281 496.953125 284.625 498.792969 303.058594 521.929688 C 321.488281 545.070312 314.992188 580.816406 288.636719 601.703125 C 262.277344 622.585938 225.96875 620.746094 207.535156 597.609375 Z M 306.238281 974.605469 C 277.300781 973.59375 254.722656 946.085938 255.875 913.144531 C 257.027344 880.207031 281.449219 854.351562 310.382812 855.367188 C 339.320312 856.378906 361.855469 883.886719 360.703125 916.824219 C 359.597656 949.765625 335.21875 975.621094 306.238281 974.605469 Z M 416.6875 764.003906 C 406.875 795.46875 376.554688 814.007812 348.996094 805.40625 C 321.441406 796.804688 307.066406 764.371094 316.882812 732.90625 C 326.695312 701.4375 357.015625 682.898438 384.570312 691.5 C 412.125 700.105469 426.503906 732.535156 416.6875 764.003906 Z M 472.027344 665.277344 C 444.058594 665.277344 421.386719 647.152344 421.386719 624.84375 C 421.386719 602.53125 444.058594 584.402344 472.027344 584.402344 C 499.996094 584.402344 522.667969 602.53125 522.667969 624.84375 C 522.667969 647.152344 499.996094 665.277344 472.027344 665.277344 Z M 561.882812 508.175781 C 569.484375 493.226562 591.738281 489.269531 611.601562 499.296875 C 631.460938 509.371094 641.410156 529.660156 633.8125 544.613281 C 626.207031 559.5625 603.953125 563.519531 584.09375 553.492188 C 564.230469 543.460938 554.277344 523.128906 561.882812 508.175781 Z M 667.355469 698.539062 C 659.753906 713.488281 637.496094 717.449219 617.636719 707.417969 C 597.777344 697.34375 587.824219 677.054688 595.425781 662.105469 C 603.03125 647.152344 625.285156 643.199219 645.144531 653.226562 C 665.003906 663.300781 674.957031 683.585938 667.355469 698.539062 Z M 698.136719 647.660156 C 683.113281 635.191406 679.519531 614.8125 690.023438 602.207031 C 700.578125 589.558594 721.265625 589.417969 736.289062 601.886719 C 751.3125 614.351562 754.949219 634.734375 744.398438 647.335938 C 733.847656 659.988281 713.109375 660.128906 698.136719 647.660156 Z M 767.527344 772.695312 C 763.476562 785.625 747.210938 792.019531 731.21875 787.003906 C 715.230469 781.988281 705.554688 767.453125 709.65625 754.527344 C 713.710938 741.597656 729.976562 735.207031 745.964844 740.21875 C 761.953125 745.234375 771.585938 759.769531 767.527344 772.695312 Z M 789.1875 676.457031 C 793.242188 663.53125 809.507812 657.136719 825.496094 662.148438 C 841.484375 667.164062 851.160156 681.703125 847.0625 694.628906 C 843.003906 707.554688 826.738281 713.949219 810.75 708.9375 C 794.761719 703.921875 785.132812 689.382812 789.1875 676.457031 Z M 837.429688 810.054688 C 822.546875 809.316406 810.933594 798.964844 811.535156 786.914062 C 812.132812 774.859375 824.667969 765.707031 839.59375 766.394531 C 854.527344 767.085938 866.089844 777.480469 865.492188 789.535156 C 864.894531 801.632812 852.359375 810.789062 837.429688 810.054688 Z M 895.675781 685.335938 C 895.902344 673.742188 907.746094 664.589844 922.078125 664.910156 C 936.40625 665.234375 947.835938 674.847656 947.601562 686.441406 C 947.375 698.03125 935.53125 707.1875 921.203125 706.867188 C 906.871094 706.589844 895.445312 696.929688 895.675781 685.335938 Z M 942.398438 792.894531 C 928.390625 796.019531 915.027344 789.398438 912.492188 778.078125 C 909.960938 766.761719 919.21875 755.078125 933.226562 751.949219 C 947.234375 748.820312 960.597656 755.445312 963.132812 766.761719 C 965.667969 778.078125 956.40625 789.765625 942.398438 792.894531 Z M 989.859375 683.679688 C 987.09375 673.742188 994.648438 662.976562 1006.8125 659.574219 C 1018.980469 656.167969 1031.097656 661.460938 1033.910156 671.351562 C 1036.671875 681.242188 1029.117188 692.050781 1016.953125 695.457031 C 1004.789062 698.859375 992.667969 693.570312 989.859375 683.679688 Z M 1035.105469 750.847656 C 1022.941406 754.25 1010.824219 748.960938 1008.058594 739.070312 C 1005.296875 729.179688 1012.851562 718.367188 1025.015625 714.964844 C 1037.179688 711.558594 1049.300781 716.847656 1052.0625 726.738281 C 1054.875 736.628906 1047.226562 747.441406 1035.105469 750.847656 Z M 1061.1875 645.269531 C 1057.179688 639.886719 1059.300781 631.605469 1065.886719 626.679688 C 1072.476562 621.804688 1081.046875 622.175781 1085.058594 627.558594 C 1089.066406 632.9375 1086.945312 641.21875 1080.355469 646.140625 C 1073.769531 651.019531 1065.199219 650.648438 1061.1875 645.269531 Z M 1099.476562 693.894531 C 1092.890625 698.769531 1084.320312 698.402344 1080.308594 693.019531 C 1076.300781 687.636719 1078.375 679.308594 1084.964844 674.433594 C 1091.554688 669.558594 1100.167969 669.925781 1104.132812 675.308594 C 1108.1875 680.6875 1106.066406 689.015625 1099.476562 693.894531 Z M 1116.851562 639.929688 C 1111.828125 635.515625 1112.148438 626.957031 1117.542969 620.792969 C 1122.980469 614.628906 1131.457031 613.25 1136.480469 617.664062 C 1141.5 622.082031 1141.179688 630.640625 1135.742188 636.804688 C 1130.398438 642.921875 1121.917969 644.347656 1116.851562 639.929688 Z M 1116.851562 639.929688 "/>
</g>
<path style="fill-rule:evenodd;fill:rgb(0%,0%,0%);fill-opacity:1;stroke-width:1;stroke-linecap:butt;stroke-linejoin:miter;stroke:rgb(0%,0%,0%);stroke-opacity:1;stroke-miterlimit:8;" d="M 682.499121 212.999902 C 682.499121 207.75332 686.528496 203.500091 691.499258 203.500091 C 696.47002 203.500091 700.499395 207.75332 700.499395 212.999902 C 700.499395 218.246484 696.47002 222.499714 691.499258 222.499714 C 686.528496 222.499714 682.499121 218.246484 682.499121 212.999902 Z M 682.499121 212.999902 " transform="matrix(1.954397,0,0,1.954397,-461.237785,-85.993485)"/>
<path style="fill:none;stroke-width:6;stroke-linecap:round;stroke-linejoin:miter;stroke:rgb(0%,0%,0%);stroke-opacity:1;stroke-miterlimit:8;" d="M 709.589473 241.399401 C 692.430651 255.64612 667.145124 257.175124 647.326035 245.164948 " transform="matrix(1.954397,0,0,1.954397,-461.237785,-85.993485)"/>
</g>
</svg>
